{
  "source": "C:\\Users\\Peter\\Desktop\\stuff\\MIUN\\quantitative_research\\video_compression\\videos\\HEVC_CLASS_B\\ParkScene_1920x1080_24.y4m",
  "output": "C:\\Users\\Peter\\Desktop\\stuff\\MIUN\\quantitative_research\\video_compression\\compressed_videos\\HEVC_CLASS_B\\av1\\4\\ParkScene_1920x1080_24_av1.mkv",
  "codec": "av1",
  "ok": "Input #0, yuv4mpegpipe, from 'C:\\Users\\Peter\\Desktop\\stuff\\MIUN\\quantitative_research\\video_compression\\videos\\HEVC_CLASS_B\\ParkScene_1920x1080_24.y4m':\n  Duration: 00:00:10.00, start: 0.000000, bitrate: 597198 kb/s\n  Stream #0:0: Video: rawvideo (I420 / 0x30323449), yuv420p(progressive), 1920x1080, 24 fps, 24 tbr, 24 tbn\n[out#0/matroska @ 000001cc02828ec0] Codec AVOption b:a (set bitrate (in bits/s)) has not been used for any stream. The most likely reason is either wrong type (e.g. a video option with no video streams) or that it is a private option of some decoder which was not actually used for any stream.\nStream mapping:\n  Stream #0:0 -> #0:0 (rawvideo (native) -> av1 (libsvtav1))\nPress [q] to stop, [?] for help\nSvt[info]: -------------------------------------------\nSvt[info]: SVT [version]:\tSVT-AV1 Encoder Lib v3.1.0-19-g6ecfe8ec\nSvt[info]: SVT [build]  :\tGCC 15.2.0\t 64 bit\nSvt[info]: LIB Build date: Aug 17 2025 11:37:13\nSvt[info]: -------------------------------------------\n[libsvtav1 @ 000001cc0282c080] Specified chroma sample location center is unsupported on the AV1 bit stream level. Usage of a container that allows passing this information - such as Matroska - is recommended.\nSvt[info]: Level of Parallelism: 5\nSvt[info]: Number of PPCS 93\nSvt[info]: [asm level on system : up to avx2]\nSvt[info]: [asm level selected : up to avx2]\nSvt[info]: -------------------------------------------\nSvt[info]: SVT [config]: main profile\ttier (auto)\tlevel (auto)\nSvt[info]: SVT [config]: width / height / fps numerator / fps denominator \t\t: 1920 / 1080 / 24 / 1\nSvt[info]: SVT [config]: bit-depth / color format \t\t\t\t\t: 8 / YUV420\nSvt[info]: SVT [config]: preset / tune / pred struct \t\t\t\t\t: 4 / PSNR / random access\nSvt[info]: SVT [config]: gop size / mini-gop size / key-frame type \t\t\t: 161 / 16 / key frame\nSvt[info]: SVT [config]: BRC mode / target bitrate (kbps)\t\t\t\t: VBR / 4000 \nSvt[info]: SVT [config]: AQ mode / Variance Boost \t\t\t\t\t: 2 / 0\nSvt[info]: SVT [config]: sharpness / luminance-based QP bias \t\t\t\t: 0 / 0\nSvt[info]: SVT [config]: QP scale compress strength \t\t\t\t\t: 0\nSvt[info]: -------------------------------------------\nOutput #0, matroska, to 'C:\\Users\\Peter\\Desktop\\stuff\\MIUN\\quantitative_research\\video_compression\\compressed_videos\\HEVC_CLASS_B\\av1\\4\\ParkScene_1920x1080_24_av1.mkv':\n  Metadata:\n    encoder         : Lavf62.3.100\n  Stream #0:0: Video: av1 (AV01 / 0x31305641), yuv420p(tv, progressive), 1920x1080, q=2-31, 4000 kb/s, 24 fps, 1k tbn\n    Metadata:\n      encoder         : Lavc62.11.100 libsvtav1\n    Side data:\n      cpb: bitrate max/min/avg: 0/0/4000000 buffer size: 4000000 vbv_delay: N/A\nframe=    0 fps=0.0 q=0.0 size=       0KiB time=N/A bitrate=N/A speed=N/A elapsed=0:00:04.33    \nframe=    0 fps=0.0 q=0.0 size=       0KiB time=N/A bitrate=N/A speed=N/A elapsed=0:00:04.86    \nframe=    0 fps=0.0 q=0.0 size=       0KiB time=N/A bitrate=N/A speed=N/A elapsed=0:00:05.47    \nframe=    0 fps=0.0 q=0.0 size=       0KiB time=N/A bitrate=N/A speed=N/A elapsed=0:00:06.03    \nframe=    0 fps=0.0 q=0.0 size=       0KiB time=N/A bitrate=N/A speed=N/A elapsed=0:00:06.62    \nframe=    0 fps=0.0 q=0.0 size=       0KiB time=N/A bitrate=N/A speed=N/A elapsed=0:00:07.23    \nframe=    0 fps=0.0 q=0.0 size=       0KiB time=N/A bitrate=N/A speed=N/A elapsed=0:00:07.94    \nframe=    0 fps=0.0 q=0.0 size=       0KiB time=N/A bitrate=N/A speed=N/A elapsed=0:00:08.54    \nframe=    0 fps=0.0 q=0.0 size=       0KiB time=N/A bitrate=N/A speed=N/A elapsed=0:00:09.11    \nframe=    0 fps=0.0 q=0.0 size=       0KiB time=N/A bitrate=N/A speed=N/A elapsed=0:00:09.69    \nframe=    0 fps=0.0 q=0.0 size=       0KiB time=N/A bitrate=N/A speed=N/A elapsed=0:00:10.25    \nframe=    0 fps=0.0 q=0.0 size=       0KiB time=N/A bitrate=N/A speed=N/A elapsed=0:00:10.81    \nframe=    0 fps=0.0 q=0.0 size=       0KiB time=N/A bitrate=N/A speed=N/A elapsed=0:00:11.38    \nframe=    0 fps=0.0 q=0.0 size=       0KiB time=N/A bitrate=N/A speed=N/A elapsed=0:00:11.95    \nframe=    0 fps=0.0 q=0.0 size=       0KiB time=N/A bitrate=N/A speed=N/A elapsed=0:00:12.55    \nframe=    0 fps=0.0 q=0.0 size=       0KiB time=N/A bitrate=N/A speed=N/A elapsed=0:00:13.14    \nframe=    0 fps=0.0 q=0.0 size=       0KiB time=N/A bitrate=N/A speed=N/A elapsed=0:00:13.77    \nframe=    0 fps=0.0 q=0.0 size=       0KiB time=N/A bitrate=N/A speed=N/A elapsed=0:00:14.41    \nframe=    0 fps=0.0 q=0.0 size=       0KiB time=N/A bitrate=N/A speed=N/A elapsed=0:00:15.01    \nframe=    0 fps=0.0 q=0.0 size=       0KiB time=N/A bitrate=N/A speed=N/A elapsed=0:00:15.55    \nframe=    0 fps=0.0 q=0.0 size=       0KiB time=N/A bitrate=N/A speed=N/A elapsed=0:00:16.11    \nframe=    1 fps=0.1 q=9.0 size=       1KiB time=00:00:00.00 bitrate=N/A speed=   0x elapsed=0:00:16.67    \nframe=    1 fps=0.1 q=9.0 size=       1KiB time=00:00:00.00 bitrate=N/A speed=   0x elapsed=0:00:17.21    \nframe=    1 fps=0.1 q=9.0 size=       1KiB time=00:00:00.00 bitrate=N/A speed=   0x elapsed=0:00:17.77    \nframe=    1 fps=0.1 q=9.0 size=       1KiB time=00:00:00.00 bitrate=N/A speed=   0x elapsed=0:00:18.31    \nframe=    1 fps=0.1 q=9.0 size=       1KiB time=00:00:00.00 bitrate=N/A speed=   0x elapsed=0:00:18.91    \nframe=    1 fps=0.1 q=9.0 size=       1KiB time=00:00:00.00 bitrate=N/A speed=   0x elapsed=0:00:19.49    \nframe=    1 fps=0.0 q=9.0 size=       1KiB time=00:00:00.00 bitrate=N/A speed=   0x elapsed=0:00:20.03    \nframe=    1 fps=0.0 q=9.0 size=       1KiB time=00:00:00.00 bitrate=N/A speed=   0x elapsed=0:00:20.62    \nframe=    1 fps=0.0 q=9.0 size=       1KiB time=00:00:00.00 bitrate=N/A speed=   0x elapsed=0:00:21.23    \nframe=    1 fps=0.0 q=9.0 size=       1KiB time=00:00:00.00 bitrate=N/A speed=   0x elapsed=0:00:21.79    \nframe=    1 fps=0.0 q=9.0 size=       1KiB time=00:00:00.00 bitrate=N/A speed=   0x elapsed=0:00:22.35    \nframe=    1 fps=0.0 q=9.0 size=       1KiB time=00:00:00.00 bitrate=N/A speed=   0x elapsed=0:00:22.90    \nframe=    1 fps=0.0 q=9.0 size=       1KiB time=00:00:00.00 bitrate=N/A speed=   0x elapsed=0:00:23.43    \nframe=    1 fps=0.0 q=9.0 size=       1KiB time=00:00:00.00 bitrate=N/A speed=   0x elapsed=0:00:23.95    \nframe=    1 fps=0.0 q=9.0 size=       1KiB time=00:00:00.00 bitrate=N/A speed=   0x elapsed=0:00:24.50    \nframe=    1 fps=0.0 q=9.0 size=       1KiB time=00:00:00.00 bitrate=N/A speed=   0x elapsed=0:00:25.03    \nframe=    3 fps=0.1 q=30.0 size=       1KiB time=00:00:00.08 bitrate=  54.0kbits/s speed=0.00326x elapsed=0:00:25.56    \nframe=    4 fps=0.2 q=33.0 size=       1KiB time=00:00:00.12 bitrate=  36.0kbits/s speed=0.00479x elapsed=0:00:26.08    \nframe=    5 fps=0.2 q=28.0 size=       1KiB time=00:00:00.16 bitrate=  27.0kbits/s speed=0.00626x elapsed=0:00:26.60    \nframe=    6 fps=0.2 q=30.0 size=       1KiB time=00:00:00.20 bitrate=  21.6kbits/s speed=0.00767x elapsed=0:00:27.17    \nframe=    6 fps=0.2 q=30.0 size=       1KiB time=00:00:00.20 bitrate=  21.6kbits/s speed=0.00752x elapsed=0:00:27.69    \nframe=    7 fps=0.2 q=29.0 size=       1KiB time=00:00:00.25 bitrate=  18.0kbits/s speed=0.00886x elapsed=0:00:28.21    \nframe=    8 fps=0.3 q=29.0 size=       1KiB time=00:00:00.29 bitrate=  15.4kbits/s speed=0.0101x elapsed=0:00:28.79    \nframe=    9 fps=0.3 q=24.0 size=       1KiB time=00:00:00.33 bitrate=  13.5kbits/s speed=0.0114x elapsed=0:00:29.36    \nframe=   11 fps=0.4 q=29.0 size=       1KiB time=00:00:00.41 bitrate=  10.8kbits/s speed=0.0139x elapsed=0:00:29.93    \nframe=   12 fps=0.4 q=28.0 size=       1KiB time=00:00:00.45 bitrate=   9.8kbits/s speed=0.015x elapsed=0:00:30.49    \nframe=   13 fps=0.4 q=27.0 size=       1KiB time=00:00:00.50 bitrate=   9.0kbits/s speed=0.0161x elapsed=0:00:31.03    \nframe=   14 fps=0.4 q=27.0 size=       1KiB time=00:00:00.54 bitrate=   8.3kbits/s speed=0.0171x elapsed=0:00:31.61    \nframe=   16 fps=0.5 q=26.0 size=       1KiB time=00:00:00.62 bitrate=   7.2kbits/s speed=0.0194x elapsed=0:00:32.16    \nframe=   17 fps=0.5 q=14.0 size=       1KiB time=00:00:00.66 bitrate=   6.7kbits/s speed=0.0204x elapsed=0:00:32.74    \nframe=   19 fps=0.6 q=30.0 size=       1KiB time=00:00:00.75 bitrate=   6.0kbits/s speed=0.0225x elapsed=0:00:33.27    \nframe=   21 fps=0.6 q=27.0 size=       1KiB time=00:00:00.83 bitrate=   5.4kbits/s speed=0.0247x elapsed=0:00:33.79    \nframe=   23 fps=0.7 q=30.0 size=       1KiB time=00:00:00.91 bitrate=   4.9kbits/s speed=0.0267x elapsed=0:00:34.30    \nframe=   24 fps=0.7 q=29.0 size=       1KiB time=00:00:00.95 bitrate=   4.7kbits/s speed=0.0275x elapsed=0:00:34.83    \nframe=   25 fps=0.7 q=25.0 size=       1KiB time=00:00:01.00 bitrate=   4.5kbits/s speed=0.0282x elapsed=0:00:35.40    \nframe=   27 fps=0.8 q=30.0 size=       1KiB time=00:00:01.08 bitrate=   4.2kbits/s speed=0.0302x elapsed=0:00:35.92    \nframe=   28 fps=0.8 q=30.0 size=       1KiB time=00:00:01.12 bitrate=   4.0kbits/s speed=0.0308x elapsed=0:00:36.47    \nframe=   29 fps=0.8 q=28.0 size=       1KiB time=00:00:01.16 bitrate=   3.9kbits/s speed=0.0315x elapsed=0:00:37.04    \nframe=   30 fps=0.8 q=30.0 size=       1KiB time=00:00:01.20 bitrate=   3.7kbits/s speed=0.0321x elapsed=0:00:37.63    \nframe=   32 fps=0.8 q=30.0 size=       1KiB time=00:00:01.29 bitrate=   3.5kbits/s speed=0.0338x elapsed=0:00:38.23    \nframe=   32 fps=0.8 q=30.0 size=       1KiB time=00:00:01.29 bitrate=   3.5kbits/s speed=0.0333x elapsed=0:00:38.77    \nframe=   34 fps=0.9 q=31.0 size=       1KiB time=00:00:01.37 bitrate=   3.3kbits/s speed=0.035x elapsed=0:00:39.30    \nframe=   36 fps=0.9 q=31.0 size=       1KiB time=00:00:01.45 bitrate=   3.1kbits/s speed=0.0366x elapsed=0:00:39.84    \nframe=   38 fps=0.9 q=31.0 size=       1KiB time=00:00:01.54 bitrate=   2.9kbits/s speed=0.0382x elapsed=0:00:40.36    \nframe=   39 fps=1.0 q=30.0 size=       1KiB time=00:00:01.58 bitrate=   2.8kbits/s speed=0.0387x elapsed=0:00:40.88    \nframe=   40 fps=1.0 q=31.0 size=       1KiB time=00:00:01.62 bitrate=   2.8kbits/s speed=0.0392x elapsed=0:00:41.42    \nframe=   40 fps=1.0 q=31.0 size=       1KiB time=00:00:01.62 bitrate=   2.8kbits/s speed=0.0387x elapsed=0:00:41.94    \nframe=   41 fps=1.0 q=25.0 size=       1KiB time=00:00:01.66 bitrate=   2.7kbits/s speed=0.0393x elapsed=0:00:42.46    \nframe=   44 fps=1.0 q=32.0 size=       1KiB time=00:00:01.79 bitrate=   2.5kbits/s speed=0.0417x elapsed=0:00:43.01    \nframe=   44 fps=1.0 q=32.0 size=       1KiB time=00:00:01.79 bitrate=   2.5kbits/s speed=0.0411x elapsed=0:00:43.55    \nframe=   46 fps=1.0 q=31.0 size=       1KiB time=00:00:01.83 bitrate=   2.5kbits/s speed=0.0416x elapsed=0:00:44.07    \nframe=   46 fps=1.0 q=31.0 size=       1KiB time=00:00:01.87 bitrate=   2.4kbits/s speed=0.042x elapsed=0:00:44.69    \nframe=   47 fps=1.0 q=29.0 size=       1KiB time=00:00:01.91 bitrate=   2.3kbits/s speed=0.0424x elapsed=0:00:45.25    \nframe=   48 fps=1.0 q=31.0 size=       1KiB time=00:00:01.95 bitrate=   2.3kbits/s speed=0.0428x elapsed=0:00:45.78    \nframe=   48 fps=1.0 q=31.0 size=       1KiB time=00:00:01.95 bitrate=   2.3kbits/s speed=0.0423x elapsed=0:00:46.34    \nframe=   49 fps=1.0 q=12.0 size=       1KiB time=00:00:02.00 bitrate=   2.2kbits/s speed=0.0426x elapsed=0:00:46.92    \nframe=   51 fps=1.1 q=31.0 size=       1KiB time=00:00:02.08 bitrate=   2.2kbits/s speed=0.0439x elapsed=0:00:47.46    \nframe=   52 fps=1.1 q=32.0 size=       1KiB time=00:00:02.12 bitrate=   2.1kbits/s speed=0.0443x elapsed=0:00:47.97    \nframe=   53 fps=1.1 q=29.0 size=       1KiB time=00:00:02.16 bitrate=   2.1kbits/s speed=0.0447x elapsed=0:00:48.50    \nframe=   54 fps=1.1 q=30.0 size=       1KiB time=00:00:02.20 bitrate=   2.0kbits/s speed=0.045x elapsed=0:00:49.02    \nframe=   55 fps=1.1 q=27.0 size=       1KiB time=00:00:02.25 bitrate=   2.0kbits/s speed=0.0454x elapsed=0:00:49.57    \nframe=   55 fps=1.1 q=27.0 size=       1KiB time=00:00:02.25 bitrate=   2.0kbits/s speed=0.0449x elapsed=0:00:50.10    \nframe=   55 fps=1.1 q=27.0 size=       1KiB time=00:00:02.25 bitrate=   2.0kbits/s speed=0.0444x elapsed=0:00:50.62    \nframe=   56 fps=1.1 q=30.0 size=       1KiB time=00:00:02.29 bitrate=   2.0kbits/s speed=0.0448x elapsed=0:00:51.16    \nframe=   56 fps=1.1 q=30.0 size=       1KiB time=00:00:02.29 bitrate=   2.0kbits/s speed=0.0443x elapsed=0:00:51.69    \nframe=   57 fps=1.1 q=26.0 size=       1KiB time=00:00:02.33 bitrate=   1.9kbits/s speed=0.0447x elapsed=0:00:52.24    \nframe=   58 fps=1.1 q=32.0 size=       1KiB time=00:00:02.37 bitrate=   1.9kbits/s speed=0.045x elapsed=0:00:52.77    \nframe=   59 fps=1.1 q=30.0 size=       1KiB time=00:00:02.41 bitrate=   1.9kbits/s speed=0.0453x elapsed=0:00:53.30    \nframe=   60 fps=1.1 q=32.0 size=       1KiB time=00:00:02.45 bitrate=   1.8kbits/s speed=0.0456x elapsed=0:00:53.91    \nframe=   61 fps=1.1 q=26.0 size=       1KiB time=00:00:02.50 bitrate=   1.8kbits/s speed=0.0459x elapsed=0:00:54.46    \nframe=   63 fps=1.1 q=29.0 size=       1KiB time=00:00:02.54 bitrate=   1.8kbits/s speed=0.0462x elapsed=0:00:55.01    \nframe=   63 fps=1.1 q=29.0 size=       1KiB time=00:00:02.58 bitrate=   1.7kbits/s speed=0.0465x elapsed=0:00:55.58    \nframe=   64 fps=1.1 q=31.0 size=       1KiB time=00:00:02.62 bitrate=   1.7kbits/s speed=0.0467x elapsed=0:00:56.16    \nframe=   66 fps=1.2 q=32.0 size=       1KiB time=00:00:02.70 bitrate=   1.7kbits/s speed=0.0477x elapsed=0:00:56.76    \nframe=   67 fps=1.2 q=31.0 size=       1KiB time=00:00:02.75 bitrate=   1.6kbits/s speed=0.048x elapsed=0:00:57.32    \nframe=   68 fps=1.2 q=32.0 size=       1KiB time=00:00:02.79 bitrate=   1.6kbits/s speed=0.0482x elapsed=0:00:57.90    \nframe=   69 fps=1.2 q=29.0 size=       1KiB time=00:00:02.83 bitrate=   1.6kbits/s speed=0.0485x elapsed=0:00:58.44    \nframe=   70 fps=1.2 q=30.0 size=       1KiB time=00:00:02.87 bitrate=   1.6kbits/s speed=0.0487x elapsed=0:00:58.99    \nframe=   71 fps=1.2 q=26.0 size=       1KiB time=00:00:02.91 bitrate=   1.5kbits/s speed=0.049x elapsed=0:00:59.51    \nframe=   71 fps=1.2 q=26.0 size=       1KiB time=00:00:02.91 bitrate=   1.5kbits/s speed=0.0486x elapsed=0:01:00.01    \nframe=   73 fps=1.2 q=25.0 size=       1KiB time=00:00:03.00 bitrate=   1.5kbits/s speed=0.0495x elapsed=0:01:00.54    \nframe=   75 fps=1.2 q=29.0 size=       1KiB time=00:00:03.04 bitrate=   1.5kbits/s speed=0.0498x elapsed=0:01:01.06    \nframe=   75 fps=1.2 q=29.0 size=       1KiB time=00:00:03.08 bitrate=   1.5kbits/s speed=0.05x elapsed=0:01:01.62    \nframe=   76 fps=1.2 q=31.0 size=       1KiB time=00:00:03.12 bitrate=   1.4kbits/s speed=0.0502x elapsed=0:01:02.22    \nframe=   77 fps=1.2 q=25.0 size=       1KiB time=00:00:03.16 bitrate=   1.4kbits/s speed=0.0504x elapsed=0:01:02.81    \nframe=   79 fps=1.2 q=29.0 size=       1KiB time=00:00:03.25 bitrate=   1.4kbits/s speed=0.0513x elapsed=0:01:03.38    \nframe=   79 fps=1.2 q=29.0 size=       1KiB time=00:00:03.25 bitrate=   1.4kbits/s speed=0.0509x elapsed=0:01:03.91    \nframe=   81 fps=1.3 q=14.0 size=       1KiB time=00:00:03.33 bitrate=   1.3kbits/s speed=0.0517x elapsed=0:01:04.44    \nframe=   83 fps=1.3 q=31.0 size=       1KiB time=00:00:03.41 bitrate=   1.3kbits/s speed=0.0526x elapsed=0:01:04.97    \nframe=   84 fps=1.3 q=25.0 size=       1KiB time=00:00:03.45 bitrate=   1.3kbits/s speed=0.0528x elapsed=0:01:05.49    \nframe=   85 fps=1.3 q=29.0 size=       1KiB time=00:00:03.50 bitrate=   1.3kbits/s speed=0.053x elapsed=0:01:06.00    \nframe=   86 fps=1.3 q=32.0 size=       1KiB time=00:00:03.54 bitrate=   1.3kbits/s speed=0.0532x elapsed=0:01:06.54    \nframe=   87 fps=1.3 q=27.0 size=       1KiB time=00:00:03.58 bitrate=   1.3kbits/s speed=0.0534x elapsed=0:01:07.11    \nframe=   89 fps=1.3 q=24.0 size=       1KiB time=00:00:03.66 bitrate=   1.2kbits/s speed=0.0542x elapsed=0:01:07.63    \nframe=   91 fps=1.3 q=30.0 size=       1KiB time=00:00:03.70 bitrate=   1.2kbits/s speed=0.0544x elapsed=0:01:08.16    \nframe=   91 fps=1.3 q=30.0 size=       1KiB time=00:00:03.75 bitrate=   1.2kbits/s speed=0.0546x elapsed=0:01:08.71    \nframe=   93 fps=1.3 q=26.0 size=       1KiB time=00:00:03.83 bitrate=   1.2kbits/s speed=0.0554x elapsed=0:01:09.24    \nframe=   96 fps=1.4 q=32.0 size=       1KiB time=00:00:03.95 bitrate=   1.1kbits/s speed=0.0567x elapsed=0:01:09.77    \nframe=   99 fps=1.4 q=32.0 size=       1KiB time=00:00:04.08 bitrate=   1.1kbits/s speed=0.0581x elapsed=0:01:10.30    \nframe=  101 fps=1.4 q=30.0 size=       1KiB time=00:00:04.16 bitrate=   1.1kbits/s speed=0.0588x elapsed=0:01:10.87    \nframe=  102 fps=1.4 q=31.0 size=       1KiB time=00:00:04.20 bitrate=   1.1kbits/s speed=0.0589x elapsed=0:01:11.40    \nframe=  103 fps=1.4 q=28.0 size=       1KiB time=00:00:04.25 bitrate=   1.1kbits/s speed=0.0591x elapsed=0:01:11.94    \nframe=  106 fps=1.5 q=33.0 size=       1KiB time=00:00:04.33 bitrate=   1.0kbits/s speed=0.0598x elapsed=0:01:12.51    \nframe=  107 fps=1.5 q=31.0 size=       1KiB time=00:00:04.41 bitrate=   1.0kbits/s speed=0.0604x elapsed=0:01:13.08    \nframe=  108 fps=1.5 q=31.0 size=       1KiB time=00:00:04.45 bitrate=   1.0kbits/s speed=0.0605x elapsed=0:01:13.64    \nframe=  111 fps=1.5 q=30.0 size=       1KiB time=00:00:04.58 bitrate=   1.0kbits/s speed=0.0617x elapsed=0:01:14.24    \nframe=  115 fps=1.5 q=32.0 size=       1KiB time=00:00:04.75 bitrate=   0.9kbits/s speed=0.0635x elapsed=0:01:14.76    \nframe=  116 fps=1.5 q=27.0 size=       1KiB time=00:00:04.79 bitrate=   0.9kbits/s speed=0.0636x elapsed=0:01:15.31    \nframe=  118 fps=1.6 q=31.0 size=       1KiB time=00:00:04.87 bitrate=   0.9kbits/s speed=0.0643x elapsed=0:01:15.84    \nframe=  119 fps=1.6 q=28.0 size=       1KiB time=00:00:04.91 bitrate=   0.9kbits/s speed=0.0643x elapsed=0:01:16.41    \nframe=  122 fps=1.6 q=33.0 size=       1KiB time=00:00:05.04 bitrate=   0.9kbits/s speed=0.0655x elapsed=0:01:16.94    \nframe=  124 fps=1.6 q=30.0 size=    2560KiB time=00:00:05.12 bitrate=4092.0kbits/s speed=0.0662x elapsed=0:01:17.46    \nframe=  127 fps=1.6 q=30.0 size=    2560KiB time=00:00:05.25 bitrate=3994.6kbits/s speed=0.0673x elapsed=0:01:18.02    \nframe=  130 fps=1.7 q=34.0 size=    2560KiB time=00:00:05.33 bitrate=3932.2kbits/s speed=0.0679x elapsed=0:01:18.55    \nframe=  131 fps=1.7 q=33.0 size=    2560KiB time=00:00:05.41 bitrate=3871.7kbits/s speed=0.0685x elapsed=0:01:19.11    \nframe=  132 fps=1.7 q=34.0 size=    2560KiB time=00:00:05.45 bitrate=3842.1kbits/s speed=0.0685x elapsed=0:01:19.66    \nframe=  134 fps=1.7 q=33.0 size=    2560KiB time=00:00:05.54 bitrate=3784.3kbits/s speed=0.0691x elapsed=0:01:20.21    \nframe=  135 fps=1.7 q=30.0 size=    2560KiB time=00:00:05.58 bitrate=3756.1kbits/s speed=0.0692x elapsed=0:01:20.73    \nframe=  138 fps=1.7 q=34.0 size=    2560KiB time=00:00:05.70 bitrate=3673.8kbits/s speed=0.0702x elapsed=0:01:21.30    \nframe=  139 fps=1.7 q=32.0 size=    2560KiB time=00:00:05.75 bitrate=3647.2kbits/s speed=0.0703x elapsed=0:01:21.81    \nframe=  143 fps=1.7 q=25.0 size=    2560KiB time=00:00:05.91 bitrate=3544.5kbits/s speed=0.0719x elapsed=0:01:22.34    \nframe=  147 fps=1.8 q=31.0 size=    2560KiB time=00:00:06.08 bitrate=3447.4kbits/s speed=0.0734x elapsed=0:01:22.86    \nframe=  149 fps=1.8 q=27.0 size=    2560KiB time=00:00:06.16 bitrate=3400.8kbits/s speed=0.074x elapsed=0:01:23.37    \nframe=  151 fps=1.8 q=30.0 size=    2560KiB time=00:00:06.25 bitrate=3355.4kbits/s speed=0.0744x elapsed=0:01:23.96    \nframe=  153 fps=1.8 q=29.0 size=    2560KiB time=00:00:06.33 bitrate=3311.3kbits/s speed=0.0749x elapsed=0:01:24.51    \nframe=  155 fps=1.8 q=32.0 size=    2560KiB time=00:00:06.41 bitrate=3268.3kbits/s speed=0.0754x elapsed=0:01:25.05    \nframe=  157 fps=1.8 q=30.0 size=    2560KiB time=00:00:06.50 bitrate=3226.4kbits/s speed=0.076x elapsed=0:01:25.57    \nframe=  159 fps=1.8 q=24.0 size=    2560KiB time=00:00:06.58 bitrate=3185.5kbits/s speed=0.0764x elapsed=0:01:26.11    \nframe=  174 fps=2.0 q=26.0 size=    3072KiB time=00:00:07.20 bitrate=3491.2kbits/s speed=0.0832x elapsed=0:01:26.64    \nframe=  178 fps=2.0 q=17.0 size=    3072KiB time=00:00:07.37 bitrate=3412.3kbits/s speed=0.0846x elapsed=0:01:27.22    \nframe=  184 fps=2.1 q=32.0 size=    3072KiB time=00:00:07.62 bitrate=3300.4kbits/s speed=0.0869x elapsed=0:01:27.74    \nframe=  186 fps=2.1 q=24.0 size=    3072KiB time=00:00:07.70 bitrate=3264.8kbits/s speed=0.0873x elapsed=0:01:28.25    \nframe=  190 fps=2.1 q=26.0 size=    3072KiB time=00:00:07.87 bitrate=3195.7kbits/s speed=0.0887x elapsed=0:01:28.78    \nframe=  190 fps=2.1 q=26.0 size=    3072KiB time=00:00:07.87 bitrate=3195.7kbits/s speed=0.0882x elapsed=0:01:29.32    \nframe=  194 fps=2.2 q=14.0 size=    3072KiB time=00:00:08.04 bitrate=3129.4kbits/s speed=0.0895x elapsed=0:01:29.85    \nframe=  198 fps=2.2 q=28.0 size=    3072KiB time=00:00:08.20 bitrate=3065.9kbits/s speed=0.0908x elapsed=0:01:30.36    \nframe=  202 fps=2.2 q=24.0 size=    3072KiB time=00:00:08.37 bitrate=3004.9kbits/s speed=0.0921x elapsed=0:01:30.88    \nframe=  202 fps=2.2 q=24.0 size=    3072KiB time=00:00:08.37 bitrate=3004.9kbits/s speed=0.0916x elapsed=0:01:31.40    \nframe=  206 fps=2.2 q=24.0 size=    3072KiB time=00:00:08.54 bitrate=2946.2kbits/s speed=0.0929x elapsed=0:01:31.92    \nframe=  214 fps=2.3 q=31.0 size=    3072KiB time=00:00:08.87 bitrate=2835.6kbits/s speed=0.096x elapsed=0:01:32.44    \nframe=  218 fps=2.3 q=22.0 size=    3072KiB time=00:00:09.04 bitrate=2783.3kbits/s speed=0.0973x elapsed=0:01:32.96    \nframe=  224 fps=2.4 q=31.0 size=    3072KiB time=00:00:09.29 bitrate=2708.4kbits/s speed=0.0994x elapsed=0:01:33.48    \n[out#0/matroska @ 000001cc02828ec0] video:4844KiB audio:0KiB subtitle:0KiB other streams:0KiB global headers:0KiB muxing overhead: 0.036150%\nframe=  240 fps=2.6 q=26.0 Lsize=    4845KiB time=00:00:09.95 bitrate=3986.0kbits/s speed=0.106x elapsed=0:01:33.60    \n",
  "seconds": 94.6779317855835,
  "probe_out": {}
}